<svg width="40" height="40" viewBox="0 0 40 40" fill="none" xmlns="http://www.w3.org/2000/svg">
<g clip-path="url(#clip0_95_39)">
<path d="M29.7105 2.63609C31.7396 2.63841 33.6849 3.4455 35.1197 4.8803C36.5545 6.31509 37.3616 8.26042 37.3639 10.2895V29.7105C37.362 31.7397 36.5551 33.6853 35.1202 35.1202C33.6853 36.5551 31.7397 37.362 29.7105 37.3639H10.2895C8.26042 37.3616 6.31509 36.5545 4.8803 35.1197C3.4455 33.6849 2.63841 31.7396 2.63609 29.7105V10.2895C2.63841 8.26042 3.4455 6.31509 4.8803 4.8803C6.31509 3.4455 8.26042 2.63841 10.2895 2.63609H29.7105ZM29.7105 0H10.2895C7.56072 0.000465946 4.94381 1.08469 3.01425 3.01425C1.08469 4.94381 0.000465946 7.56072 0 10.2895L0 29.7105C0 32.4394 1.08407 35.0566 3.01373 36.9863C4.94339 38.9159 7.56058 40 10.2895 40H29.7105C32.4394 40 35.0566 38.9159 36.9863 36.9863C38.9159 35.0566 40 32.4394 40 29.7105V10.2895C40 7.56058 38.9159 4.94339 36.9863 3.01373C35.0566 1.08407 32.4394 0 29.7105 0Z" fill="#1A1A1A"/>
<path d="M20.0009 13.5985C21.2671 13.5985 22.5049 13.974 23.5577 14.6775C24.6106 15.3809 25.4312 16.3808 25.9157 17.5507C26.4003 18.7205 26.5271 20.0078 26.28 21.2497C26.033 22.4916 25.4233 23.6323 24.5279 24.5277C23.6325 25.4231 22.4918 26.0328 21.2499 26.2798C20.008 26.5269 18.7207 26.4001 17.5509 25.9155C16.381 25.4309 15.3811 24.6104 14.6777 23.5575C13.9742 22.5047 13.5987 21.2669 13.5987 20.0007C13.6006 18.3033 14.2757 16.6759 15.4759 15.4757C16.6761 14.2755 18.3035 13.6004 20.0009 13.5985ZM20.0009 10.9624C18.2132 10.9621 16.4656 11.4918 14.979 12.4848C13.4924 13.4777 12.3337 14.8892 11.6494 16.5407C10.965 18.1922 10.7858 20.0095 11.1343 21.7629C11.4828 23.5162 12.3435 25.1269 13.6075 26.3911C14.8714 27.6553 16.4819 28.5163 18.2352 28.8651C19.9885 29.214 21.8059 29.0351 23.4575 28.3511C25.1091 27.6671 26.5208 26.5086 27.514 25.0222C28.5073 23.5359 29.0374 21.7883 29.0374 20.0007C29.0369 17.604 28.0848 15.3056 26.3902 13.6108C24.6957 11.9159 22.3975 10.9633 20.0009 10.9624Z" fill="#1A1A1A"/>
<path d="M29.3537 9.35996C29.805 9.35996 30.1709 8.99409 30.1709 8.54277C30.1709 8.09145 29.805 7.72559 29.3537 7.72559C28.9024 7.72559 28.5365 8.09145 28.5365 8.54277C28.5365 8.99409 28.9024 9.35996 29.3537 9.35996Z" stroke="#1A1A1A" stroke-width="4" stroke-miterlimit="10"/>
</g>
<defs>
<clipPath id="clip0_95_39">
<rect width="40" height="40" fill="white"/>
</clipPath>
</defs>
</svg>
