<svg width="38" height="63" viewBox="0 0 38 63" fill="none" xmlns="http://www.w3.org/2000/svg">
<path d="M24.6176 45.8226L35.0758 29.0062C35.11 28.9518 35.1386 28.8946 35.1609 28.8353C36.9668 25.8902 37.9204 22.526 37.9204 19.0913C37.9204 8.78714 29.5373 0.404053 19.2333 0.404053C8.92929 0.404053 0.545588 8.78714 0.545588 19.0913C0.545588 22.5267 1.50052 25.8923 3.30784 28.8395C3.32876 28.8911 3.35318 28.9413 3.38247 28.9901L13.4654 45.8644C5.63831 46.9707 0.49118 50.1892 0.49118 54.0934C0.49118 58.9308 8.71166 62.7192 19.2054 62.7192C29.6992 62.7192 37.9197 58.9301 37.9197 54.0934C37.9204 50.1711 32.5333 46.8808 24.6176 45.8226ZM5.18631 27.8971C3.51919 25.2436 2.6382 22.1988 2.6382 19.0913C2.6382 9.94088 10.0823 2.49669 19.2333 2.49669C28.3836 2.49669 35.8277 9.94088 35.8277 19.0913C35.8277 22.2002 34.9468 25.245 33.2803 27.8971C33.2455 27.9529 33.2169 28.0108 33.1938 28.0708L22.1448 45.8351C21.9788 46.0897 21.946 46.1476 21.7431 46.4811L18.9529 50.9677L5.27978 28.0854C5.25536 28.0205 5.22397 27.9571 5.18631 27.8971ZM19.2061 60.6266C9.4106 60.6266 2.58449 57.1828 2.58449 54.0934C2.58449 51.2892 7.72534 48.6469 14.64 47.8287L18.037 53.5144C18.2247 53.8276 18.5609 54.0208 18.9257 54.0236C18.9285 54.0236 18.932 54.0236 18.9348 54.0236C19.2961 54.0236 19.6323 53.8367 19.8234 53.5298L23.3948 47.7876C30.4197 48.5486 35.827 51.2578 35.827 54.0934C35.8277 57.1835 29.0016 60.6266 19.2061 60.6266Z" fill="black"/>
<path d="M26.0008 19.0912C26.0008 15.3447 22.9526 12.2964 19.2061 12.2964C15.4596 12.2964 12.4114 15.3447 12.4114 19.0912C12.4114 22.8377 15.4596 25.886 19.2061 25.886C22.9526 25.886 26.0008 22.8377 26.0008 19.0912ZM14.504 19.0912C14.504 16.4984 16.6134 14.389 19.2061 14.389C21.7989 14.389 23.9082 16.4984 23.9082 19.0912C23.9082 21.6839 21.7996 23.7933 19.2061 23.7933C16.6127 23.7933 14.504 21.6839 14.504 19.0912Z" fill="black"/>
</svg>
