<svg width="36" height="70" viewBox="0 0 36 70" fill="none" xmlns="http://www.w3.org/2000/svg">
<path d="M29.1192 70C29.1192 70 35.473 70 35.473 63.6366V6.36337C35.473 0 29.1192 0 29.1192 0H6.88078C6.88078 0 0.526955 0 0.526955 6.36337V63.6366C0.527043 70 6.88078 70 6.88078 70H29.1192ZM18 67.3504C16.2464 67.3504 14.8231 65.9271 14.8231 64.1736C14.8231 62.4198 16.2464 60.9967 18 60.9967C19.7537 60.9967 21.1769 62.4199 21.1769 64.1736C21.1769 65.9272 19.7537 67.3504 18 67.3504ZM13.2346 3.87899C13.2346 3.48506 13.4221 3.17687 13.6571 3.17687H22.3427C22.5747 3.17687 22.7653 3.49143 22.7653 3.87899V4.06645C22.7653 4.46038 22.5747 4.76857 22.3427 4.76857H13.6571C13.4252 4.76857 13.2346 4.45402 13.2346 4.06645V3.87899ZM3.70391 7.94226H32.2961V58.7728H3.70391V7.94226Z" fill="black"/>
</svg>
