<svg width="40" height="40" viewBox="0 0 40 40" fill="none" xmlns="http://www.w3.org/2000/svg">
<path d="M20.3437 35.0781C15.8828 34.9374 11.6406 34.8281 7.39844 34.664C6.48438 34.6249 5.55469 34.4843 4.66406 34.2734C2.99219 33.8827 1.83594 32.8749 1.24219 31.2265C0.765625 29.8984 0.59375 28.5312 0.46875 27.1406C0.195313 23.8749 0.195312 20.6093 0.328125 17.3437C0.40625 15.4999 0.453125 13.6406 0.945312 11.8515C1.24219 10.7812 1.60156 9.7343 2.46875 8.96087C3.38281 8.14055 4.45313 7.64837 5.67188 7.59368C9.01562 7.42962 12.3516 7.22649 15.6953 7.19524C20.1953 7.14837 24.7031 7.21087 29.2031 7.2968C31.1484 7.33587 33.1094 7.43743 35.0391 7.68743C36.8047 7.9218 38.125 8.90618 38.8281 10.6249C39.3672 11.9452 39.5703 13.3281 39.6875 14.7343C39.9922 18.2577 40 21.7812 39.8281 25.3046C39.7422 27.0937 39.6563 28.8906 39.1484 30.6327C38.5703 32.6327 37.3437 33.9531 35.2969 34.4062C34.5 34.5781 33.6719 34.6406 32.8594 34.6718C28.6094 34.8202 24.3672 34.9531 20.3437 35.0781ZM16.0234 26.1952C19.5859 24.3515 23.1094 22.5234 26.7031 20.6562C23.1172 18.7812 19.5938 16.9452 16.0234 15.0781C16.0234 18.8046 16.0234 22.4687 16.0234 26.1952Z" fill="black"/>
</svg>
