<svg width="59" height="30" viewBox="0 0 59 30" fill="none" xmlns="http://www.w3.org/2000/svg">
<path fill-rule="evenodd" clip-rule="evenodd" d="M0.923587 27.4777C0.923587 27.4777 3.76805 26.6969 4.49311 25.9718C5.1624 25.2468 6.11055 24.5775 6.50097 24.6332C6.89139 24.689 7.00293 24.8563 7.00293 24.8563C7.00293 24.8563 7.56067 24.1313 8.39728 24.3544C9.23389 24.5775 9.45698 25.0794 9.45698 25.0794C9.45698 25.0794 13.4727 23.462 16.2614 23.2389C19.0501 23.0158 21.8945 23.4062 21.8945 23.4062L28.0854 21.5657C28.0854 21.5657 29.5356 19.7809 31.655 19.7809C33.7186 19.7809 36.1726 20.506 37.0093 19.7251C37.8459 18.9443 38.5709 16.0998 38.6267 14.5382C38.7382 12.9765 38.9613 12.6419 38.794 12.4188C38.6267 12.1957 38.4036 11.3033 38.4036 11.3033C38.4036 11.3033 38.0132 11.9168 37.9016 12.4745C37.7901 12.9765 37.7901 13.0323 37.7901 13.0323C37.7901 13.0323 37.4554 11.6937 38.1805 10.8013C38.9056 9.96473 37.6785 8.7377 37.2323 7.90109C36.7304 7.06449 37.2323 5.00086 37.9574 4.38734C38.6267 3.77383 39.6864 3.21609 39.6864 3.21609C39.6864 3.21609 40.523 0.929368 42.5866 0.81782C44.6503 0.706272 45.5984 1.26401 46.1004 2.21217C46.6023 3.21609 46.6023 3.43919 46.8254 3.82961C47.0485 4.22002 47.7736 4.61044 47.7736 4.88931C47.7736 5.16818 47.5505 5.39127 47.5505 6.00479C47.5505 6.6183 47.8851 7.06449 47.5505 7.39913C47.2159 7.73377 46.1562 7.56645 46.1562 7.56645C46.1562 7.56645 44.5387 10.0205 44.706 11.5264C44.9291 12.9765 46.6581 15.8767 46.6581 16.546C46.6581 17.2153 46.6581 17.3826 46.6581 17.3826L48.5544 19.8925C48.5544 19.8925 51.2873 25.7487 51.622 25.9718C51.9566 26.1949 58.036 26.9757 57.0878 27.1988C56.1397 27.4777 52.9606 27.5335 52.9606 27.5335C52.9606 27.5335 58.8726 28.147 58.4822 28.4259C58.0918 28.7047 57.534 29.0394 56.6416 29.0951C55.7493 29.1509 52.3471 29.5971 51.2316 28.9836C50.1719 28.3701 48.666 26.0834 47.4947 24.8006C46.3235 23.5178 44.4272 20.7848 44.4272 20.7848C44.4272 20.7848 42.4193 22.5696 41.3038 23.462C40.1884 24.3544 37.0093 26.0834 36.5631 26.3065C36.0611 26.4738 31.3203 27.8681 31.3203 27.8681C31.3203 27.8681 23.5678 28.9836 19.6078 28.2028C15.7037 27.4219 10.0705 27.7008 7.61645 28.0912C5.21817 28.4816 4.71621 28.4259 3.60073 28.2585C2.54103 28.0912 0.756266 28.4816 0.533171 28.3143C0.365849 28.2028 0.867814 27.5893 0.867814 27.5893L0.923587 27.4777ZM40.5788 7.4549C40.6903 7.56645 40.7461 7.56645 40.7461 7.56645C40.7461 7.56645 39.7979 6.33943 39.7422 5.50282C39.7422 4.72199 39.7422 4.61044 39.7422 4.61044H39.6864L39.0729 4.66621C39.0729 4.66621 38.8498 5.44705 39.1844 6.06056C39.4633 6.67407 40.6903 7.56645 40.6903 7.56645C40.6903 7.56645 40.6345 7.51068 40.5788 7.4549ZM39.6306 9.23967V10.2436L40.2441 9.63008L39.6306 9.18389V9.23967Z" fill="#FED15A"/>
<path fill-rule="evenodd" clip-rule="evenodd" d="M0.923478 27.4777C0.923478 27.4777 3.76794 26.6969 4.493 25.9718C5.16229 25.2468 6.11044 24.5775 6.50086 24.6333C6.89128 24.689 7.00282 24.8564 7.00282 24.8564C7.00282 24.8564 7.56056 24.1313 8.39717 24.3544C9.23378 24.5775 9.45687 25.0795 9.45687 25.0795C9.45687 25.0795 10.1819 24.8006 11.2974 24.4102V27.6451C9.79152 27.7008 8.50872 27.8124 7.67211 27.9797C5.27384 28.3701 4.77187 28.3143 3.65639 28.147C2.59669 27.9797 0.81193 28.3701 0.588835 28.2028C0.421513 28.0912 0.923478 27.4777 0.923478 27.4777Z" fill="#FED15A"/>
<path fill-rule="evenodd" clip-rule="evenodd" d="M6.66895 24.6895C6.89204 24.7453 6.94781 24.8569 6.94781 24.8569C6.94781 24.8569 7.50555 24.1318 8.34216 24.3549C8.95567 24.5222 9.29031 24.8569 9.40186 25.0242C8.8999 25.2473 8.06329 25.5819 7.44978 25.4146C7.05936 25.3031 6.83627 25.0242 6.66895 24.6895ZM14.7004 23.4625C15.2023 23.351 15.7043 23.2952 16.2063 23.2394C18.6603 23.0163 21.1701 23.2952 21.7279 23.351C21.6163 23.4067 21.449 23.4625 21.3375 23.5183C20.8913 23.6298 19.0507 23.9645 16.9313 23.5741C16.262 23.4625 15.4812 23.4067 14.6446 23.4625H14.7004ZM46.0453 7.5112C45.9895 7.56698 45.8779 7.79007 45.7106 8.06894C45.2644 7.79007 44.7067 7.39966 44.372 7.17656C43.8143 6.73037 43.5912 6.28418 43.5912 6.28418C43.5912 6.28418 44.8182 7.12079 45.8779 7.45543L46.0453 7.5112Z" fill="#F8B74B"/>
<path fill-rule="evenodd" clip-rule="evenodd" d="M39.5752 9.23975V10.2437L40.1887 9.68594L39.5752 9.23975Z" fill="#ED6D53"/>
<path fill-rule="evenodd" clip-rule="evenodd" d="M38.7379 12.1958C38.5705 11.8612 38.4032 11.1919 38.4032 11.1919C38.4032 11.1919 38.0128 11.8054 37.9013 12.3631C37.7897 12.8651 37.7897 12.9209 37.7897 12.9209C37.7897 12.9209 37.4551 11.5823 38.1801 10.6899C38.9052 9.8533 37.6782 8.62628 37.232 7.78967C36.73 6.95306 37.232 4.88943 37.957 4.27592C38.6263 3.66241 39.686 3.10467 39.686 3.10467C39.686 3.10467 40.5226 0.817944 42.5863 0.706396C43.9248 0.650622 44.7614 0.817944 45.3749 1.26413C45.0961 1.543 44.7614 1.98919 44.8172 2.26806C44.9288 2.71425 44.9845 2.99312 44.5941 3.21622C44.2037 3.43931 44.371 4.83366 44.371 4.83366C44.371 4.83366 43.2555 3.8855 42.4747 4.22015C41.6939 4.49902 42.0843 5.05675 42.1958 6.39533C42.2516 7.7339 41.3592 8.01277 41.3592 8.01277C41.3592 8.01277 41.6939 8.06854 43.2555 9.46289C43.869 10.0206 44.4268 10.6899 44.8172 11.3592V11.415C44.873 11.6381 44.9288 11.8612 44.9845 12.14C44.371 11.4707 43.4786 10.5784 42.5305 10.1322C40.8573 9.40711 40.1322 9.90908 39.4629 10.8015C39.184 11.1361 39.0167 11.6381 38.8494 12.14L38.7379 12.1958ZM39.1283 4.66634C39.1283 4.66634 38.9052 5.44717 39.2398 6.06068C39.5187 6.6742 40.7457 7.56658 40.7457 7.56658C40.7457 7.56658 39.7976 6.33955 39.7418 5.50294C39.7418 4.72211 39.7418 4.61056 39.7418 4.61056L39.1283 4.66634Z" fill="#3F596C"/>
<path fill-rule="evenodd" clip-rule="evenodd" d="M28.9229 20.7293C29.5364 20.2273 30.4845 19.7253 31.6558 19.7253C33.0501 19.7253 34.556 20.06 35.6715 20.06C35.6715 20.6735 35.6715 21.5101 35.7273 22.514C35.8388 24.1315 36.4523 25.47 36.787 26.0836C36.6754 26.1393 36.6196 26.1393 36.5639 26.1951C36.1177 26.3624 32.3251 27.4779 31.4884 27.7568C31.1538 26.9759 30.4845 25.1354 29.7595 22.7371C29.4806 21.8447 29.2017 21.2312 28.9786 20.8408L28.9229 20.7293Z" fill="#3F596C"/>
<path fill-rule="evenodd" clip-rule="evenodd" d="M46.7136 17.327L48.5541 19.7811C48.5541 19.7811 51.287 25.6373 51.6217 25.8604C51.9563 26.0835 58.0356 26.8643 57.0875 27.0874C56.1393 27.3663 52.9602 27.4221 52.9602 27.4221C52.9602 27.4221 53.2391 27.4778 53.6853 27.4778C53.0718 27.4221 52.2352 27.3663 51.9005 27.1432C51.3986 26.8086 51.1197 25.9162 49.9484 24.1314C48.7772 22.3467 45.877 18.1636 45.877 18.1636L46.6578 17.2712L46.7136 17.327Z" fill="#F8B74B"/>
<path fill-rule="evenodd" clip-rule="evenodd" d="M38.1807 16.9923C38.348 16.323 38.5153 15.5979 38.5711 15.0402C38.9057 15.3748 39.3519 15.7095 39.7423 15.821C40.4674 15.9883 41.4155 15.9883 41.4155 15.9883L43.5907 19.5579C43.5907 19.5579 42.3637 19.5021 41.0809 18.8328C40.1885 18.3866 38.9057 17.55 38.1807 17.048V16.9923ZM44.7062 11.638L43.4792 11.2476C43.4792 11.2476 44.762 13.0881 44.762 13.9247C44.762 14.7613 44.5947 15.1517 44.5947 15.1517L45.9332 18.2193L46.6583 17.3269C46.6583 17.3269 46.6583 17.1038 46.6583 16.4903C46.6583 15.8768 45.0408 13.1996 44.7062 11.6937V11.638Z" fill="#87A0D1"/>
</svg>
