<svg aria-hidden="true" style="position:absolute;width:0;height:0;overflow:hidden" xmlns="http://www.w3.org/2000/svg"><defs><symbol id="icon-map" viewBox="0 0 19 32"><path d="m12.504 23.275 5.312-8.542a.502.502 0 0 0 .043-.087 9.463 9.463 0 0 0 1.402-4.949c0-5.234-4.258-9.492-9.492-9.492S.277 4.463.277 9.697c0 1.745.485 3.454 1.403 4.951a.539.539 0 0 0 .038.076l5.122 8.571c-3.976.562-6.59 2.197-6.59 4.18 0 2.457 4.175 4.381 9.506 4.381s9.506-1.925 9.506-4.381c0-1.992-2.736-3.664-6.757-4.201zm-9.87-9.105A8.398 8.398 0 0 1 1.34 9.697c0-4.648 3.781-8.429 8.429-8.429s8.429 3.781 8.429 8.429a8.395 8.395 0 0 1-1.294 4.473.517.517 0 0 0-.044.088l-5.612 9.023c-.084.129-.101.159-.204.328l-1.417 2.279-6.945-11.623a.533.533 0 0 0-.047-.096zm7.121 16.624c-4.976 0-8.443-1.749-8.443-3.318 0-1.424 2.611-2.766 6.123-3.182l1.725 2.888a.532.532 0 0 0 .451.259h.005a.53.53 0 0 0 .451-.251l1.814-2.917c3.568.387 6.315 1.763 6.315 3.203 0 1.57-3.467 3.318-8.442 3.318z"/><path d="M13.207 9.697c0-1.903-1.548-3.451-3.451-3.451S6.305 7.794 6.305 9.697s1.548 3.451 3.451 3.451 3.451-1.548 3.451-3.451zm-5.84 0c0-1.317 1.071-2.388 2.388-2.388s2.388 1.071 2.388 2.388-1.071 2.388-2.388 2.388-2.388-1.071-2.388-2.388z"/></symbol>
<symbol id="icon-mobilephone" viewBox="0 0 16 32"><path d="M13.312 32s2.905 0 2.905-2.909V2.909C16.217 0 13.312 0 13.312 0H3.146S.241 0 .241 2.909v26.182C.241 32 3.146 32 3.146 32h10.166zm-5.083-1.211a1.453 1.453 0 1 1 .001-2.905 1.453 1.453 0 0 1-.001 2.905zM6.05 1.773c0-.18.086-.321.193-.321h3.971c.106 0 .193.144.193.321v.086c0 .18-.087.321-.193.321H6.243c-.106 0-.193-.144-.193-.321v-.086zM1.693 3.631h13.071v23.237H1.693V3.631z"/></symbol>
<symbol id="icon-instagram" viewBox="0 0 32 32"><path d="M23.768 2.109a6.132 6.132 0 0 1 6.122 6.122v15.537a6.132 6.132 0 0 1-6.123 6.123H8.23a6.132 6.132 0 0 1-6.122-6.122V8.232A6.132 6.132 0 0 1 8.23 2.11h15.537zm0-2.109H8.231A8.232 8.232 0 0 0 0 8.231v15.537A8.232 8.232 0 0 0 8.232 32h15.537a8.232 8.232 0 0 0 8.232-8.232V8.231a8.232 8.232 0 0 0-8.232-8.232z"/><path d="M16.001 10.879a5.118 5.118 0 0 1 4.731 3.162 5.115 5.115 0 0 1-1.111 5.581 5.123 5.123 0 0 1-8.743-3.62A5.13 5.13 0 0 1 16 10.88zm0-2.109a7.23 7.23 0 0 0-1.413 14.323 7.234 7.234 0 0 0 7.423-3.074 7.227 7.227 0 0 0-.899-9.129 7.233 7.233 0 0 0-5.111-2.119z"/><path fill="none" stroke="#1a1a1a" style="stroke:var(--color1, #1a1a1a)" stroke-miterlimit="10" stroke-width="3.2" d="M23.483 7.488a.654.654 0 1 0 0-1.308.654.654 0 0 0 0 1.308z"/></symbol>
<symbol id="icon-telegram" viewBox="0 0 32 32"><path d="M29.402 2.839 1.051 13.828c-1.141.512-1.527 1.537-.276 2.093l7.273 2.323L25.633 7.32c.96-.686 1.943-.503 1.097.251L11.626 21.317l-.474 5.817c.44.898 1.244.902 1.757.456l4.179-3.974 7.157 5.387c1.662.989 2.567.351 2.924-1.462l4.694-22.342c.487-2.232-.344-3.215-2.462-2.36z"/></symbol>
<symbol id="icon-youtube" viewBox="0 0 32 32"><path d="M16.275 28.062c-3.569-.113-6.962-.2-10.356-.331a11.81 11.81 0 0 1-2.188-.312C2.394 27.106 1.468 26.3.994 24.981c-.381-1.062-.519-2.156-.619-3.269-.219-2.613-.219-5.225-.112-7.838.063-1.475.1-2.962.494-4.394.238-.856.525-1.694 1.219-2.313.731-.656 1.587-1.05 2.563-1.094 2.675-.131 5.344-.294 8.019-.319 3.6-.037 7.206.013 10.806.081 1.556.031 3.125.112 4.669.313 1.412.188 2.469.975 3.031 2.35.431 1.056.594 2.163.688 3.288.244 2.819.25 5.638.112 8.456-.069 1.431-.137 2.869-.544 4.262-.462 1.6-1.444 2.656-3.081 3.019-.638.138-1.3.188-1.95.212-3.4.119-6.794.225-10.013.325zm-3.456-7.106c2.85-1.475 5.669-2.937 8.544-4.431-2.869-1.5-5.687-2.969-8.544-4.462v8.894z"/></symbol>
<symbol id="icon-videoplayer" viewBox="0 0 32 32"><path d="m25.11 13.72-12.16-7a2.14 2.14 0 0 0-3.22 1.829V22.55a2.14 2.14 0 0 0 3.22 1.845l-.01.005 12.16-7a2.143 2.143 0 0 0 .01-3.705l-.01-.005zm-1 2-12.16 7a.14.14 0 0 1-.21-.12V8.595a.13.13 0 0 1 .069-.115H11.88a.134.134 0 0 1 .071.001h-.001l12.16 7a.14.14 0 0 1 .001.24h-.001z"/></symbol></defs></svg>