<svg aria-hidden="true" style="position: absolute; width: 0; height: 0; overflow: hidden;" version="1.1" xmlns="http://www.w3.org/2000/svg" xmlns:xlink="http://www.w3.org/1999/xlink">
<defs>
<symbol id="icon-map" viewBox="0 0 19 32">
<path d="M12.504 23.275l5.312-8.542c0.017-0.028 0.032-0.057 0.043-0.087 0.917-1.496 1.402-3.205 1.402-4.949 0-5.234-4.258-9.492-9.492-9.492s-9.492 4.258-9.492 9.492c0 1.745 0.485 3.454 1.403 4.951 0.011 0.026 0.023 0.052 0.038 0.076l5.122 8.571c-3.976 0.562-6.59 2.197-6.59 4.18 0 2.457 4.175 4.381 9.506 4.381s9.506-1.925 9.506-4.381c0-1.992-2.736-3.664-6.757-4.201zM2.634 14.17c-0.847-1.348-1.294-2.894-1.294-4.473 0-4.648 3.781-8.429 8.429-8.429s8.429 3.781 8.429 8.429c0 1.579-0.447 3.126-1.294 4.473-0.018 0.028-0.032 0.058-0.044 0.088l-5.612 9.023c-0.084 0.129-0.101 0.159-0.204 0.328l-1.417 2.279-6.945-11.623c-0.012-0.033-0.028-0.065-0.047-0.096zM9.755 30.794c-4.976 0-8.443-1.749-8.443-3.318 0-1.424 2.611-2.766 6.123-3.182l1.725 2.888c0.095 0.159 0.266 0.257 0.451 0.259 0.001 0 0.003 0 0.005 0 0.184 0 0.354-0.095 0.451-0.251l1.814-2.917c3.568 0.387 6.315 1.763 6.315 3.203 0 1.57-3.467 3.318-8.442 3.318z"></path>
<path d="M13.207 9.697c0-1.903-1.548-3.451-3.451-3.451s-3.451 1.548-3.451 3.451c0 1.903 1.548 3.451 3.451 3.451s3.451-1.548 3.451-3.451zM7.367 9.697c0-1.317 1.071-2.388 2.388-2.388s2.388 1.071 2.388 2.388c0 1.317-1.071 2.388-2.388 2.388s-2.388-1.071-2.388-2.388z"></path>
</symbol>
<symbol id="icon-mobilephone" viewBox="0 0 16 32">
<path d="M13.312 32c0 0 2.905 0 2.905-2.909v-26.182c0-2.909-2.905-2.909-2.905-2.909h-10.166c0 0-2.905 0-2.905 2.909v26.182c0 2.909 2.905 2.909 2.905 2.909h10.166zM8.229 30.789c-0.802 0-1.452-0.651-1.452-1.452s0.651-1.452 1.452-1.452c0.802 0 1.452 0.651 1.452 1.452s-0.651 1.452-1.452 1.452zM6.050 1.773c0-0.18 0.086-0.321 0.193-0.321h3.971c0.106 0 0.193 0.144 0.193 0.321v0.086c0 0.18-0.087 0.321-0.193 0.321h-3.971c-0.106 0-0.193-0.144-0.193-0.321v-0.086zM1.693 3.631h13.071v23.237h-13.071v-23.237z"></path>
</symbol>
<symbol id="icon-instagram" viewBox="0 0 32 32">
<path d="M23.768 2.109c1.623 0.002 3.18 0.648 4.327 1.795s1.794 2.704 1.795 4.327v15.537c-0.002 1.623-0.647 3.18-1.795 4.328s-2.704 1.793-4.328 1.795h-15.537c-1.623-0.002-3.18-0.648-4.327-1.795s-1.793-2.704-1.795-4.327v-15.537c0.002-1.623 0.648-3.18 1.795-4.327s2.704-1.793 4.327-1.795h15.537zM23.768 0h-15.537c-2.183 0-4.277 0.868-5.82 2.411s-2.411 3.637-2.411 5.82v15.537c0 2.183 0.867 4.277 2.411 5.821s3.637 2.411 5.821 2.411h15.537c2.183 0 4.277-0.867 5.821-2.411s2.411-3.638 2.411-5.821v-15.537c0-2.183-0.867-4.277-2.411-5.821s-3.638-2.411-5.821-2.411z"></path>
<path d="M16.001 10.879c1.013 0 2.003 0.3 2.845 0.863s1.499 1.363 1.886 2.299c0.388 0.936 0.489 1.966 0.291 2.959s-0.685 1.906-1.402 2.622-1.629 1.204-2.622 1.402c-0.994 0.198-2.023 0.096-2.959-0.291s-1.736-1.044-2.299-1.886c-0.563-0.842-0.863-1.832-0.863-2.845 0.002-1.358 0.542-2.66 1.502-3.62s2.262-1.5 3.62-1.502zM16.001 8.77c-1.43-0-2.828 0.424-4.018 1.218s-2.116 1.924-2.664 3.245c-0.548 1.321-0.691 2.775-0.412 4.178s0.967 2.691 1.979 3.703c1.011 1.011 2.3 1.7 3.702 1.979s2.857 0.136 4.178-0.411 2.451-1.474 3.245-2.663c0.795-1.189 1.219-2.587 1.219-4.017-0-1.917-0.762-3.756-2.118-5.112s-3.194-2.118-5.111-2.119z"></path>
<path fill="none" stroke="#1a1a1a" style="stroke: var(--color1, #1a1a1a)" stroke-linejoin="miter" stroke-linecap="butt" stroke-miterlimit="10" stroke-width="3.2" d="M23.483 7.488c0.361 0 0.654-0.293 0.654-0.654s-0.293-0.654-0.654-0.654c-0.361 0-0.654 0.293-0.654 0.654s0.293 0.654 0.654 0.654z"></path>
</symbol>
<symbol id="icon-telegram" viewBox="0 0 32 32">
<path d="M29.402 2.839l-28.351 10.989c-1.141 0.512-1.527 1.537-0.276 2.093l7.273 2.323 17.585-10.924c0.96-0.686 1.943-0.503 1.097 0.251l-15.104 13.746-0.474 5.817c0.44 0.898 1.244 0.902 1.757 0.456l4.179-3.974 7.157 5.387c1.662 0.989 2.567 0.351 2.924-1.462l4.694-22.342c0.487-2.232-0.344-3.215-2.462-2.36z"></path>
</symbol>
<symbol id="icon-youtube" viewBox="0 0 32 32">
<path d="M16.275 28.062c-3.569-0.113-6.962-0.2-10.356-0.331-0.731-0.031-1.475-0.144-2.188-0.312-1.337-0.313-2.263-1.119-2.737-2.438-0.381-1.062-0.519-2.156-0.619-3.269-0.219-2.613-0.219-5.225-0.112-7.838 0.063-1.475 0.1-2.962 0.494-4.394 0.238-0.856 0.525-1.694 1.219-2.313 0.731-0.656 1.587-1.050 2.563-1.094 2.675-0.131 5.344-0.294 8.019-0.319 3.6-0.037 7.206 0.013 10.806 0.081 1.556 0.031 3.125 0.112 4.669 0.313 1.412 0.188 2.469 0.975 3.031 2.35 0.431 1.056 0.594 2.163 0.688 3.288 0.244 2.819 0.25 5.638 0.112 8.456-0.069 1.431-0.137 2.869-0.544 4.262-0.462 1.6-1.444 2.656-3.081 3.019-0.638 0.138-1.3 0.188-1.95 0.212-3.4 0.119-6.794 0.225-10.013 0.325zM12.819 20.956c2.85-1.475 5.669-2.937 8.544-4.431-2.869-1.5-5.687-2.969-8.544-4.462 0 2.981 0 5.912 0 8.894z"></path>
</symbol>
<symbol id="icon-videoplayer" viewBox="0 0 32 32">
<path d="M25.11 13.72l-12.16-7c-0.309-0.184-0.682-0.293-1.080-0.293-1.176 0-2.13 0.948-2.14 2.122v14.001c0.002 1.18 0.959 2.137 2.14 2.137 0.394 0 0.763-0.106 1.080-0.292l-0.010 0.005 12.16-7c0.646-0.377 1.073-1.066 1.073-1.855s-0.427-1.479-1.063-1.85l-0.010-0.005zM24.11 15.72l-12.16 7c-0.020 0.012-0.044 0.019-0.070 0.019-0.077 0-0.139-0.062-0.14-0.139v-14c-0-0.001-0-0.003-0-0.005 0-0.050 0.028-0.093 0.069-0.115l0.001-0h0.070c0.011-0.003 0.023-0.004 0.035-0.004s0.024 0.002 0.036 0.005l-0.001-0 12.16 7c0.041 0.025 0.068 0.069 0.068 0.12s-0.027 0.095-0.067 0.12l-0.001 0z"></path>
</symbol>
</defs>
</svg>
