<!-- Generated by IcoMoon.io -->
<svg version="1.1" xmlns="http://www.w3.org/2000/svg" width="32" height="32" viewBox="0 0 32 32">
<title>instagram</title>
<path d="M23.768 2.109c1.623 0.002 3.18 0.648 4.327 1.795s1.794 2.704 1.795 4.327v15.537c-0.002 1.623-0.647 3.18-1.795 4.328s-2.704 1.793-4.328 1.795h-15.537c-1.623-0.002-3.18-0.648-4.327-1.795s-1.793-2.704-1.795-4.327v-15.537c0.002-1.623 0.648-3.18 1.795-4.327s2.704-1.793 4.327-1.795h15.537zM23.768 0h-15.537c-2.183 0-4.277 0.868-5.82 2.411s-2.411 3.637-2.411 5.82v15.537c0 2.183 0.867 4.277 2.411 5.821s3.637 2.411 5.821 2.411h15.537c2.183 0 4.277-0.867 5.821-2.411s2.411-3.638 2.411-5.821v-15.537c0-2.183-0.867-4.277-2.411-5.821s-3.638-2.411-5.821-2.411z"></path>
<path d="M16.001 10.879c1.013 0 2.003 0.3 2.845 0.863s1.499 1.363 1.886 2.299c0.388 0.936 0.489 1.966 0.291 2.959s-0.685 1.906-1.402 2.622-1.629 1.204-2.622 1.402c-0.994 0.198-2.023 0.096-2.959-0.291s-1.736-1.044-2.299-1.886c-0.563-0.842-0.863-1.832-0.863-2.845 0.002-1.358 0.542-2.66 1.502-3.62s2.262-1.5 3.62-1.502zM16.001 8.77c-1.43-0-2.828 0.424-4.018 1.218s-2.116 1.924-2.664 3.245c-0.548 1.321-0.691 2.775-0.412 4.178s0.967 2.691 1.979 3.703c1.011 1.011 2.3 1.7 3.702 1.979s2.857 0.136 4.178-0.411 2.451-1.474 3.245-2.663c0.795-1.189 1.219-2.587 1.219-4.017-0-1.917-0.762-3.756-2.118-5.112s-3.194-2.118-5.111-2.119z"></path>
<path fill="none" stroke="#1a1a1a" stroke-linejoin="miter" stroke-linecap="butt" stroke-miterlimit="10" stroke-width="3.2" d="M23.483 7.488c0.361 0 0.654-0.293 0.654-0.654s-0.293-0.654-0.654-0.654c-0.361 0-0.654 0.293-0.654 0.654s0.293 0.654 0.654 0.654z"></path>
</svg>
