<!-- Generated by IcoMoon.io -->
<svg version="1.1" xmlns="http://www.w3.org/2000/svg" width="19" height="32" viewBox="0 0 19 32">
<title>map</title>
<path d="M12.504 23.275l5.312-8.542c0.017-0.028 0.032-0.057 0.043-0.087 0.917-1.496 1.402-3.205 1.402-4.949 0-5.234-4.258-9.492-9.492-9.492s-9.492 4.258-9.492 9.492c0 1.745 0.485 3.454 1.403 4.951 0.011 0.026 0.023 0.052 0.038 0.076l5.122 8.571c-3.976 0.562-6.59 2.197-6.59 4.18 0 2.457 4.175 4.381 9.506 4.381s9.506-1.925 9.506-4.381c0-1.992-2.736-3.664-6.757-4.201zM2.634 14.17c-0.847-1.348-1.294-2.894-1.294-4.473 0-4.648 3.781-8.429 8.429-8.429s8.429 3.781 8.429 8.429c0 1.579-0.447 3.126-1.294 4.473-0.018 0.028-0.032 0.058-0.044 0.088l-5.612 9.023c-0.084 0.129-0.101 0.159-0.204 0.328l-1.417 2.279-6.945-11.623c-0.012-0.033-0.028-0.065-0.047-0.096zM9.755 30.794c-4.976 0-8.443-1.749-8.443-3.318 0-1.424 2.611-2.766 6.123-3.182l1.725 2.888c0.095 0.159 0.266 0.257 0.451 0.259 0.001 0 0.003 0 0.005 0 0.184 0 0.354-0.095 0.451-0.251l1.814-2.917c3.568 0.387 6.315 1.763 6.315 3.203 0 1.57-3.467 3.318-8.442 3.318z"></path>
<path d="M13.207 9.697c0-1.903-1.548-3.451-3.451-3.451s-3.451 1.548-3.451 3.451c0 1.903 1.548 3.451 3.451 3.451s3.451-1.548 3.451-3.451zM7.367 9.697c0-1.317 1.071-2.388 2.388-2.388s2.388 1.071 2.388 2.388c0 1.317-1.071 2.388-2.388 2.388s-2.388-1.071-2.388-2.388z"></path>
</svg>
