<!-- Generated by IcoMoon.io -->
<svg version="1.1" xmlns="http://www.w3.org/2000/svg" width="16" height="32" viewBox="0 0 16 32">
<title>mobilephone</title>
<path d="M13.312 32c0 0 2.905 0 2.905-2.909v-26.182c0-2.909-2.905-2.909-2.905-2.909h-10.166c0 0-2.905 0-2.905 2.909v26.182c0 2.909 2.905 2.909 2.905 2.909h10.166zM8.229 30.789c-0.802 0-1.452-0.651-1.452-1.452s0.651-1.452 1.452-1.452c0.802 0 1.452 0.651 1.452 1.452s-0.651 1.452-1.452 1.452zM6.050 1.773c0-0.18 0.086-0.321 0.193-0.321h3.971c0.106 0 0.193 0.144 0.193 0.321v0.086c0 0.18-0.087 0.321-0.193 0.321h-3.971c-0.106 0-0.193-0.144-0.193-0.321v-0.086zM1.693 3.631h13.071v23.237h-13.071v-23.237z"></path>
</svg>
