<!-- Generated by IcoMoon.io -->
<svg version="1.1" xmlns="http://www.w3.org/2000/svg" width="32" height="32" viewBox="0 0 32 32">
<title>videoplayer</title>
<path d="M25.11 13.72l-12.16-7c-0.309-0.184-0.682-0.293-1.080-0.293-1.176 0-2.13 0.948-2.14 2.122v14.001c0.002 1.18 0.959 2.137 2.14 2.137 0.394 0 0.763-0.106 1.080-0.292l-0.010 0.005 12.16-7c0.646-0.377 1.073-1.066 1.073-1.855s-0.427-1.479-1.063-1.85l-0.010-0.005zM24.11 15.72l-12.16 7c-0.020 0.012-0.044 0.019-0.070 0.019-0.077 0-0.139-0.062-0.14-0.139v-14c-0-0.001-0-0.003-0-0.005 0-0.050 0.028-0.093 0.069-0.115l0.001-0h0.070c0.011-0.003 0.023-0.004 0.035-0.004s0.024 0.002 0.036 0.005l-0.001-0 12.16 7c0.041 0.025 0.068 0.069 0.068 0.12s-0.027 0.095-0.067 0.12l-0.001 0z"></path>
</svg>
