<!-- Generated by IcoMoon.io -->
<svg version="1.1" xmlns="http://www.w3.org/2000/svg" width="32" height="32" viewBox="0 0 32 32">
<title>youtube</title>
<path d="M16.275 28.062c-3.569-0.113-6.962-0.2-10.356-0.331-0.731-0.031-1.475-0.144-2.188-0.312-1.337-0.313-2.263-1.119-2.737-2.438-0.381-1.062-0.519-2.156-0.619-3.269-0.219-2.613-0.219-5.225-0.112-7.838 0.063-1.475 0.1-2.962 0.494-4.394 0.238-0.856 0.525-1.694 1.219-2.313 0.731-0.656 1.587-1.050 2.563-1.094 2.675-0.131 5.344-0.294 8.019-0.319 3.6-0.037 7.206 0.013 10.806 0.081 1.556 0.031 3.125 0.112 4.669 0.313 1.412 0.188 2.469 0.975 3.031 2.35 0.431 1.056 0.594 2.163 0.688 3.288 0.244 2.819 0.25 5.638 0.112 8.456-0.069 1.431-0.137 2.869-0.544 4.262-0.462 1.6-1.444 2.656-3.081 3.019-0.638 0.138-1.3 0.188-1.95 0.212-3.4 0.119-6.794 0.225-10.013 0.325zM12.819 20.956c2.85-1.475 5.669-2.937 8.544-4.431-2.869-1.5-5.687-2.969-8.544-4.462 0 2.981 0 5.912 0 8.894z"></path>
</svg>
